PathFileType	4	(X/Y/Z)	s06c0001.trc
DataRate	CameraRate	NumFrames	NumMarkers	Units	OrigDataRate	OrigDataStartFrame	OrigNumFrames
200	200	7	49	mm	200	750	2000
Frame#	Time	racr			lacr			c7			jug			rlel			rdr			llel			ldr			s2			lic			ric			lasi			rasi			rpsi			lpsi			rgt			lgt			rth1			rth2			rth3			rth4			rlfc			rmfc			rsh1			rsh2			rsh3			rsh4			rlmal			rmmal			rcal			rtoe			rmt5			rmt1			lth1			lth2			lth4			lth3			llfc			lmfc			llmal			lmmal			lcal			lmt1			lmt5			lsh1			lsh2			lsh3			lsh4			ltoe			
		X1	Y1	Z1	X2	Y2	Z2	X3	Y3	Z3	X4	Y4	Z4	X5	Y5	Z5	X6	Y6	Z6	X7	Y7	Z7	X8	Y8	Z8	X9	Y9	Z9	X10	Y10	Z10	X11	Y11	Z11	X12	Y12	Z12	X13	Y13	Z13	X14	Y14	Z14	X15	Y15	Z15	X16	Y16	Z16	X17	Y17	Z17	X18	Y18	Z18	X19	Y19	Z19	X20	Y20	Z20	X21	Y21	Z21	X22	Y22	Z22	X23	Y23	Z23	X24	Y24	Z24	X25	Y25	Z25	X26	Y26	Z26	X27	Y27	Z27	X28	Y28	Z28	X29	Y29	Z29	X30	Y30	Z30	X31	Y31	Z31	X32	Y32	Z32	X33	Y33	Z33	X34	Y34	Z34	X35	Y35	Z35	X36	Y36	Z36	X37	Y37	Z37	X38	Y38	Z38	X39	Y39	Z39	X40	Y40	Z40	X41	Y41	Z41	X42	Y42	Z42	X43	Y43	Z43	X44	Y44	Z44	X45	Y45	Z45	X46	Y46	Z46	X47	Y47	Z47	X48	Y48	Z48	X49	Y49	Z49	
750	3.7500	228.888779	1417.423218	398.168182	231.686493	1429.276733	43.835850	193.255936	1490.240723	218.155594	313.947357	1395.303467	224.527832	249.327881	1200.394531	576.648865	350.626495	1042.445801	767.688049	238.225433	1207.466431	-127.837105	334.925079	1070.182739	-328.548187	117.962006	964.788940	230.281693	270.169952	1008.178284	51.271046	280.796692	986.469116	388.712128	322.686249	954.980164	80.406029	335.051147	945.052612	350.783325	142.078705	998.338257	257.517181	128.989960	995.416504	193.969635	243.374710	871.546570	401.164978	248.517944	896.557495	28.039474	252.598450	749.549988	420.519409	260.623199	659.839478	413.826660	224.260605	582.023254	400.121155	297.159058	655.333618	404.468262	206.296356	473.445221	380.469025	221.218948	450.288696	272.167694	175.215714	353.326599	401.935211	188.759155	267.678375	382.007538	160.098694	186.643951	370.619263	217.283890	269.703156	354.582062	154.772049	99.827179	358.325745	199.946228	121.988503	273.173126	109.537697	65.749023	297.036438	382.184082	75.467705	334.596619	280.696381	43.229282	392.386536	303.982422	59.679306	276.963379	231.787537	764.052612	12.342392	245.314209	677.880859	17.355915	281.589783	674.265198	25.885336	212.825394	595.378723	29.531256	183.454727	477.252655	49.858559	204.436996	455.812592	159.827652	154.689651	99.284920	56.062160	171.155090	121.974205	141.120773	100.988007	58.900654	110.549225	310.784241	52.324677	132.992477	290.145020	51.072262	17.890907	160.850266	370.893921	23.958059	177.947586	285.990326	36.945885	150.468185	202.234512	37.984879	208.646591	286.294098	61.573112	380.373596	71.490402	69.484772	
751	3.7550	228.884476	1417.430298	398.171844	231.701340	1429.293091	43.834045	193.284790	1490.259277	218.128113	313.944824	1395.302490	224.537430	249.321457	1200.386353	576.649841	350.637207	1042.407959	767.658813	238.234848	1207.461182	-127.831215	334.907928	1070.186890	-328.534058	117.961418	964.792542	230.281479	270.182251	1008.179749	51.290760	280.796722	986.464661	388.703125	322.700378	954.977051	80.417496	335.070190	945.053528	350.795074	142.077621	998.327148	257.533051	128.975159	995.411194	193.965759	243.387741	871.556702	401.153259	248.514572	896.555542	28.042686	252.594345	749.546204	420.527802	260.623230	659.838379	413.818542	224.255814	582.038879	400.135681	297.172241	655.334106	404.482269	206.290314	473.441956	380.461060	221.217102	450.290344	272.166351	175.216736	353.315399	401.938660	188.751907	267.663757	382.015320	160.091354	186.626068	370.617157	217.289352	269.693054	354.577667	154.790604	99.831299	358.325775	199.972443	122.019661	273.192596	109.522079	65.727531	297.049866	382.192169	75.462013	334.589600	280.694366	43.218277	392.386292	303.991913	59.681362	276.969299	231.809662	764.052795	12.347154	245.332108	677.889832	17.358507	281.581329	674.288635	25.847927	212.839432	595.379517	29.536572	183.468002	477.261047	49.848621	204.467682	455.824982	159.839813	154.681229	99.281967	56.054043	171.157944	121.971573	141.111069	100.988625	58.891563	110.539154	310.768188	52.340115	132.993408	290.132294	51.061497	17.882635	160.855225	370.878967	23.973305	177.957855	285.995056	36.937168	150.468597	202.235229	37.982964	208.644363	286.296448	61.568943	380.379852	71.492584	69.485985	
752	3.7600	228.859268	1417.430176	398.181488	231.674042	1429.280029	43.838345	193.259033	1490.256714	218.151337	313.938324	1395.311646	224.555557	249.312988	1200.381714	576.643433	350.632355	1042.401001	767.649292	238.234055	1207.450195	-127.827843	334.912048	1070.178467	-328.542572	117.961533	964.784668	230.292633	270.188995	1008.166138	51.285042	280.779114	986.471191	388.704193	322.706879	954.969543	80.429268	335.072266	945.055786	350.798950	142.123596	998.355957	257.519501	128.985352	995.414734	193.972137	243.357208	871.557922	401.153809	248.516083	896.553772	28.050270	252.591858	749.553345	420.528076	260.617706	659.858215	413.828064	224.251648	582.034973	400.128967	297.177673	655.333801	404.471527	206.259033	473.476837	380.454315	221.200989	450.284424	272.155914	175.216019	353.331696	401.929016	188.753708	267.673676	382.032593	160.093704	186.625809	370.621185	217.293396	269.699005	354.610870	154.769699	99.834709	358.308685	199.969986	122.020927	273.187042	109.537506	65.735184	297.046417	382.197876	75.470894	334.586548	280.691956	43.219673	392.383331	303.979706	59.689007	276.978394	231.793793	764.042603	12.337276	245.332581	677.875732	17.354349	281.581329	674.277344	25.846004	212.837173	595.374146	29.543575	183.479248	477.257446	49.846413	204.435394	455.816406	159.828140	154.685837	99.289558	56.045536	171.155823	121.973068	141.121078	100.976723	58.875854	110.535286	310.764526	52.327644	132.994400	290.135620	51.065483	17.893270	160.854080	370.895660	23.965700	177.973221	285.975464	36.948853	150.474335	202.239227	37.990623	208.664124	286.282806	61.579453	380.370239	71.509407	69.492172	
753	3.7650	228.856628	1417.432373	398.166962	231.686951	1429.278076	43.825134	193.269485	1490.248779	218.122421	313.933289	1395.306763	224.553650	249.303207	1200.376953	576.650635	350.616028	1042.424805	767.662537	238.241516	1207.444092	-127.820213	334.923798	1070.164795	-328.542755	117.968697	964.781189	230.292328	270.181580	1008.183167	51.286800	280.784912	986.459473	388.703247	322.701324	954.978394	80.441620	335.054443	945.039917	350.804657	142.094772	998.328552	257.536957	128.982544	995.458191	193.987778	243.381210	871.557922	401.151306	248.543793	896.558899	28.052889	252.596207	749.538818	420.536469	260.630737	659.843384	413.835876	224.239182	582.049561	400.127899	297.161743	655.339722	404.480225	206.281479	473.485260	380.445618	221.204697	450.279633	272.177948	175.211212	353.353607	401.924805	188.749588	267.674622	382.025757	160.095398	186.623138	370.631256	217.262329	269.698242	354.603546	154.766083	99.796486	358.343079	199.949326	122.002365	273.200378	109.537498	65.735184	297.046417	382.189240	75.468910	334.587372	280.683136	43.228722	392.404175	303.969116	59.690945	276.955750	231.797806	764.056396	12.346901	245.325333	677.878174	17.346792	281.594635	674.278992	25.842785	212.846832	595.380737	29.532980	183.469269	477.263885	49.846962	204.452805	455.822113	159.843597	154.676834	99.286057	56.048965	171.155823	121.973068	141.121078	100.967812	58.902294	110.530067	310.758759	52.328556	132.982788	290.127991	51.060314	17.905106	160.852615	370.892303	23.947115	177.971634	285.986481	36.926208	150.476837	202.235809	37.980759	208.647079	286.278473	61.548954	380.376587	71.500809	69.499100	
754	3.7700	228.855743	1417.435425	398.170013	231.684265	1429.284546	43.843552	193.237320	1490.239258	218.173615	313.928894	1395.311157	224.549362	249.297607	1200.372559	576.631653	350.619659	1042.427124	767.662842	238.243835	1207.442749	-127.802292	334.939423	1070.172974	-328.540436	117.959015	964.796204	230.292877	270.196228	1008.177551	51.310001	280.778351	986.473633	388.727234	322.724945	954.969116	80.451782	335.065552	945.069458	350.811066	142.117355	998.314148	257.521484	128.990677	995.447693	193.986389	243.380081	871.563477	401.156738	248.524536	896.560852	28.054537	252.590256	749.554749	420.549774	260.630951	659.844543	413.839478	224.244614	582.041382	400.126312	297.164124	655.341309	404.490356	206.272110	473.480835	380.436646	221.216003	450.291687	272.165100	175.201248	353.339081	401.940247	188.748886	267.674500	382.012573	160.099396	186.642639	370.619080	217.281937	269.699615	354.595490	154.767197	99.840004	358.320190	199.954422	122.016884	273.207733	109.522072	65.727516	297.049866	382.179932	75.475899	334.590881	280.699432	43.228580	392.391693	303.970123	59.688667	276.967773	231.800446	764.055786	12.349576	245.336258	677.891357	17.342064	281.606812	674.270691	25.868490	212.840088	595.377625	29.545275	183.485779	477.261414	49.849182	204.451752	455.822906	159.843109	154.688141	99.295914	56.053871	171.151367	121.962746	141.105148	100.987511	58.898075	110.543427	310.766174	52.317600	132.996597	290.139496	51.064034	17.901239	160.874023	370.885223	23.961395	177.972458	285.982788	36.935558	150.475937	202.239288	37.976395	208.652679	286.280670	61.561760	380.376587	71.500816	69.499100	
755	3.7750	228.855667	1417.428101	398.160492	231.682175	1429.277832	43.839207	193.253418	1490.221069	218.118622	313.919250	1395.325439	224.565201	249.291992	1200.355469	576.620117	350.645386	1042.389038	767.642151	238.246277	1207.442139	-127.812706	334.942993	1070.159302	-328.542297	117.969284	964.785522	230.308319	270.187805	1008.169800	51.294483	280.783936	986.472778	388.714355	322.715057	954.971985	80.454155	335.053131	945.049988	350.819672	142.097931	998.312622	257.538086	128.971588	995.470886	193.990677	243.360245	871.557495	401.158630	248.526932	896.551147	28.067041	252.593491	749.543823	420.536255	260.626770	659.855774	413.839142	224.250916	582.035522	400.128326	297.160217	655.329834	404.489532	206.290085	473.492889	380.447723	221.204407	450.277679	272.172546	175.196808	353.336639	401.923645	188.731949	267.642487	381.998169	160.096619	186.628860	370.610107	217.299301	269.706390	354.602417	154.762344	99.819122	358.327026	199.969681	122.023346	273.185638	109.537682	65.749008	297.036438	382.171448	75.480011	334.582642	280.703796	43.228870	392.398499	303.978882	59.697174	276.979645	231.808350	764.058655	12.334515	245.343399	677.873535	17.361624	281.598083	674.269287	25.844557	212.843292	595.373413	29.529613	183.481735	477.266388	49.850975	204.438248	455.819946	159.832993	154.682480	99.283913	56.052578	171.163284	121.970390	141.116699	100.989662	58.899387	110.546974	310.778442	52.342819	132.997726	290.131592	51.056969	17.897367	160.881546	370.894623	23.947880	177.971939	285.997498	36.928963	150.473251	202.227310	37.981792	208.670471	286.285797	61.589916	380.379120	71.511780	69.487152	
756	3.7800	228.831818	1417.425659	398.180328	231.682693	1429.277710	43.841927	193.233643	1490.241333	218.126480	313.908234	1395.316162	224.562881	249.287277	1200.352173	576.609619	350.608856	1042.417236	767.642456	238.243820	1207.446899	-127.813812	334.935516	1070.160889	-328.547394	117.960594	964.788147	230.305801	270.177795	1008.173950	51.305725	280.771484	986.486572	388.737457	322.725677	954.976135	80.454300	335.050812	945.052856	350.820160	142.123581	998.373596	257.530853	128.977875	995.421448	193.985565	243.361237	871.550232	401.164307	248.539337	896.554077	28.062038	252.567368	749.570923	420.537750	260.626801	659.855774	413.839142	224.232742	582.030212	400.124664	297.159027	655.340393	404.499451	206.259094	473.465057	380.435608	221.224182	450.287170	272.187500	175.188828	353.327606	401.942566	188.732666	267.682617	382.012360	160.111343	186.650848	370.623260	217.289078	269.718201	354.585907	154.776886	99.833832	358.325806	199.958496	122.017807	273.199890	109.538177	65.719589	297.039734	382.184204	75.477730	334.580841	280.697571	43.232071	392.393127	303.971832	59.702789	276.951874	231.806412	764.049255	12.337483	245.337830	677.885315	17.340321	281.603699	674.279724	25.867327	212.850616	595.389526	29.520460	183.495789	477.254974	49.848629	204.469223	455.814423	159.835083	154.684082	99.290207	56.042496	171.125732	121.984146	141.117584	100.971687	58.912029	110.541771	310.773407	52.338161	132.990280	290.136261	51.072445	17.886921	160.869186	370.890533	23.952406	177.964203	285.984802	36.939629	150.492172	202.231873	37.984081	208.669724	286.276611	61.592518	380.386597	71.500923	69.494156	
